<svg width="551" height="170" viewBox="0 0 551 170" fill="none" xmlns="http://www.w3.org/2000/svg">
<path d="M99.3296 103V57.1094H21.1782V103H4.75391V1H21.1782V43.082H99.3296V1H115.754V103H99.3296Z" fill="#040201"/>
<path d="M134.754 103V1H243.005L232.172 15.0273H151.222V45.6731H238.275L228.826 57.8638H151.222V89.1183H243.754L232.931 103H134.754Z" fill="#040201"/>
<path d="M367.3 102.995L317.602 60.0022L267.606 102.995H246.754L307.951 50.5484L250.732 1H273.741L319.141 40.7927L364.835 1H386.467L329.248 49.9448L390.754 103H367.295L367.3 102.995Z" fill="#040201"/>
<path d="M436.271 103L446.328 89.1678H517.331L470.394 18.6797L413.255 103H393.754L459.895 6.22656C462.017 3.0381 465.683 0 470.712 0C475.735 0 479.24 2.73222 481.528 6.22656L546.754 103H436.271Z" fill="#040201"/>
<path d="M10.25 169.948C8.21875 169.948 6.45312 169.62 4.95312 168.964C3.45833 168.307 2.28646 167.385 1.4375 166.208C0.593749 165.026 0.114584 163.646 0 162.068H3.69271C3.79167 163.13 4.15625 164 4.77604 164.693C5.39583 165.38 6.19271 165.891 7.15104 166.229C8.11979 166.562 9.15104 166.729 10.25 166.729C11.526 166.729 12.6719 166.521 13.6927 166.099C14.7031 165.682 15.5104 165.094 16.1042 164.344C16.6979 163.589 17 162.708 17 161.708C17 160.802 16.7396 160.062 16.2396 159.49C15.724 158.927 15.0469 158.458 14.2031 158.089C13.3542 157.719 12.4271 157.396 11.4167 157.125L8 156.161C5.72396 155.521 3.95833 154.599 2.69792 153.396C1.43229 152.198 0.802083 150.661 0.802083 148.786C0.802083 147.198 1.23958 145.802 2.09375 144.609C2.95312 143.411 4.11979 142.484 5.57812 141.828C7.03646 141.172 8.6875 140.844 10.5052 140.844C12.3281 140.844 14.0052 141.172 15.4375 141.828C16.8698 142.484 17.9896 143.38 18.8229 144.51C19.6458 145.641 20.0833 146.917 20.1354 148.349H16.6094C16.4427 146.974 15.7865 145.906 14.6406 145.161C13.4948 144.411 12.0781 144.026 10.3958 144.026C9.18229 144.026 8.11458 144.229 7.19792 144.63C6.28646 145.026 5.57292 145.573 5.06771 146.255C4.56771 146.938 4.30729 147.729 4.30729 148.615C4.30729 149.599 4.60938 150.396 5.22396 150.995C5.83854 151.594 6.5625 152.062 7.40625 152.396C8.23958 152.734 9.00521 153 9.69271 153.188L12.5104 153.964C13.2708 154.167 14.1042 154.443 15.026 154.792C15.9323 155.151 16.8125 155.615 17.651 156.203C18.4844 156.792 19.1615 157.536 19.7031 158.438C20.2396 159.339 20.5104 160.448 20.5104 161.76C20.5104 163.302 20.1042 164.693 19.3125 165.927C18.5 167.161 17.3438 168.146 15.8125 168.865C14.2865 169.583 12.4323 169.948 10.2656 169.948H10.25Z" fill="#040201"/>
<path d="M55.2188 169.454V141.215H72.4271V144.397H58.8229V153.605H71.5V156.788H58.8229V166.262H72.5938V169.444H55.2188V169.454Z" fill="#040201"/>
<path d="M119.082 169.829C116.665 169.829 114.514 169.246 112.629 168.079C110.738 166.913 109.259 165.246 108.171 163.074C107.092 160.908 106.551 158.335 106.551 155.35C106.551 152.371 107.092 149.772 108.171 147.611C109.259 145.444 110.728 143.772 112.629 142.6C114.514 141.423 116.665 140.84 119.082 140.84C120.504 140.84 121.853 141.048 123.129 141.465C124.389 141.887 125.535 142.496 126.551 143.298C127.561 144.1 128.4 145.069 129.082 146.215C129.754 147.361 130.223 148.658 130.473 150.111H126.868C126.665 149.142 126.316 148.283 125.837 147.553C125.353 146.829 124.764 146.199 124.056 145.699C123.358 145.194 122.582 144.814 121.738 144.559C120.895 144.309 120.009 144.184 119.087 144.184C117.389 144.184 115.868 144.616 114.499 145.475C113.134 146.335 112.056 147.595 111.259 149.257C110.467 150.918 110.066 152.96 110.066 155.366C110.066 157.772 110.467 159.798 111.275 161.46C112.072 163.121 113.16 164.376 114.52 165.23C115.884 166.079 117.41 166.507 119.087 166.507C120.009 166.507 120.895 166.376 121.738 166.116C122.582 165.861 123.363 165.48 124.056 164.98C124.764 164.486 125.348 163.861 125.837 163.121C126.327 162.382 126.665 161.533 126.868 160.574H130.473C130.233 162.012 129.775 163.303 129.098 164.439C128.421 165.579 127.582 166.548 126.572 167.361C125.556 168.168 124.421 168.783 123.15 169.21C121.884 169.637 120.525 169.845 119.087 169.845L119.082 169.829Z" fill="#040201"/>
<path d="M176.155 169.905C173.926 169.905 171.988 169.473 170.327 168.598C168.665 167.728 167.379 166.535 166.473 165.02C165.566 163.504 165.113 161.78 165.113 159.848V141.223H168.712V159.566C168.712 160.921 169.014 162.124 169.608 163.176C170.202 164.228 171.066 165.061 172.176 165.665C173.285 166.275 174.613 166.577 176.155 166.577C177.697 166.577 179.02 166.275 180.129 165.665C181.223 165.061 182.082 164.228 182.676 163.176C183.27 162.124 183.566 160.921 183.566 159.566V141.223H187.171V159.848C187.171 161.78 186.717 163.504 185.811 165.02C184.9 166.535 183.624 167.728 181.967 168.598C180.327 169.473 178.389 169.905 176.16 169.905H176.155Z" fill="#040201"/>
<path d="M223.093 169.454V141.215H232.755C234.958 141.215 236.765 141.595 238.187 142.345C239.604 143.1 240.661 144.132 241.343 145.444C242.025 146.757 242.374 148.262 242.374 149.934C242.374 151.611 242.025 153.095 241.343 154.387C240.661 155.678 239.604 156.684 238.187 157.413C236.77 158.137 234.968 158.501 232.77 158.501H225.098V155.298H232.604C234.098 155.298 235.291 155.079 236.192 154.642C237.093 154.199 237.755 153.585 238.171 152.783C238.593 151.98 238.801 151.033 238.801 149.928C238.801 148.824 238.593 147.829 238.171 147.001C237.755 146.178 237.093 145.533 236.182 145.069C235.275 144.611 234.067 144.376 232.567 144.376H226.692V169.444H223.088L223.093 169.454ZM239.317 169.454L232.499 156.741H236.551L243.494 169.454H239.317Z" fill="#040201"/>
<path d="M277.176 169.454V141.215H294.384V144.397H280.775V153.605H293.452V156.788H280.775V166.262H294.551V169.444H277.176V169.454Z" fill="#040201"/>
<path d="M369.635 169.454V141.215H373.239V166.272H386.312V169.454H369.635Z" fill="#040201"/>
<path d="M418.26 169.454L428.515 141.215H432.682L443.067 169.454H439.275L433.286 152.699C432.926 151.668 432.494 150.376 432.005 148.824C431.515 147.277 430.926 145.309 430.239 142.908H430.921C430.239 145.329 429.645 147.329 429.156 148.902C428.65 150.475 428.239 151.741 427.911 152.699L422.098 169.454H418.26ZM423.416 161.574V158.423H437.916V161.574H423.416Z" fill="#040201"/>
<path d="M476.566 169.454V141.215H486.572C488.54 141.215 490.165 141.553 491.452 142.23C492.738 142.908 493.686 143.803 494.322 144.939C494.941 146.069 495.254 147.324 495.254 148.699C495.254 149.913 495.04 150.913 494.613 151.699C494.186 152.491 493.613 153.116 492.915 153.585C492.212 154.053 491.452 154.402 490.629 154.626V154.892C491.514 154.939 492.389 155.246 493.264 155.798C494.145 156.35 494.884 157.147 495.467 158.168C496.061 159.194 496.353 160.439 496.353 161.913C496.353 163.387 496.025 164.6 495.384 165.741C494.728 166.876 493.707 167.777 492.316 168.439C490.926 169.105 489.118 169.439 486.9 169.439H476.577L476.566 169.454ZM480.171 153.616H486.384C487.395 153.616 488.311 153.413 489.134 153.012C489.957 152.616 490.608 152.048 491.087 151.324C491.572 150.6 491.806 149.746 491.806 148.777C491.806 147.548 491.374 146.517 490.53 145.668C489.671 144.824 488.332 144.397 486.504 144.397H480.171V153.616ZM480.171 166.272H486.801C488.999 166.272 490.566 165.845 491.488 165.001C492.421 164.158 492.884 163.116 492.884 161.892C492.884 160.944 492.645 160.069 492.165 159.277C491.681 158.48 491.004 157.845 490.124 157.361C489.243 156.882 488.207 156.642 486.988 156.642H480.171V166.272Z" fill="#040201"/>
<path d="M540.109 169.948C538.078 169.948 536.312 169.62 534.812 168.964C533.318 168.307 532.146 167.385 531.297 166.208C530.453 165.026 529.974 163.646 529.859 162.068H533.552C533.651 163.13 534.016 164 534.635 164.693C535.255 165.38 536.052 165.891 537.01 166.229C537.979 166.562 539.016 166.729 540.109 166.729C541.385 166.729 542.531 166.521 543.552 166.099C544.563 165.682 545.375 165.094 545.969 164.344C546.557 163.589 546.859 162.708 546.859 161.708C546.859 160.802 546.599 160.062 546.099 159.49C545.583 158.927 544.906 158.458 544.062 158.089C543.214 157.719 542.286 157.396 541.276 157.125L537.859 156.161C535.583 155.521 533.818 154.599 532.557 153.396C531.292 152.198 530.667 150.661 530.667 148.786C530.667 147.198 531.099 145.802 531.953 144.609C532.813 143.411 533.979 142.484 535.438 141.828C536.896 141.172 538.547 140.844 540.37 140.844C542.188 140.844 543.865 141.172 545.297 141.828C546.729 142.484 547.849 143.38 548.682 144.51C549.505 145.641 549.943 146.917 549.995 148.349H546.469C546.302 146.974 545.646 145.906 544.5 145.161C543.354 144.411 541.938 144.026 540.255 144.026C539.042 144.026 537.974 144.229 537.057 144.63C536.146 145.026 535.432 145.573 534.927 146.255C534.427 146.938 534.167 147.729 534.167 148.615C534.167 149.599 534.469 150.396 535.083 150.995C535.698 151.594 536.422 152.062 537.266 152.396C538.099 152.734 538.865 153 539.552 153.188L542.37 153.964C543.13 154.167 543.964 154.443 544.885 154.792C545.792 155.151 546.672 155.615 547.51 156.203C548.349 156.792 549.026 157.536 549.562 158.438C550.099 159.339 550.37 160.448 550.37 161.76C550.37 163.302 549.964 164.693 549.172 165.927C548.359 167.161 547.203 168.146 545.672 168.865C544.146 169.583 542.292 169.948 540.125 169.948H540.109Z" fill="#040201"/>
</svg>
